<?xml version="1.0" encoding="iso-8859-1"?>
<!-- Generator: Adobe Illustrator 19.0.0, SVG Export Plug-In . SVG Version: 6.00 Build 0)  -->
<svg version="1.1" id="Capa_1" xmlns="http://www.w3.org/2000/svg" xmlns:xlink="http://www.w3.org/1999/xlink" x="0px" y="0px"
	 viewBox="0 0 511.998 511.998" style="enable-background:new 0 0 511.998 511.998;" xml:space="preserve">
<g>
	<g>
		<path d="M254.496,290.588c-14.087,0-25.547,11.46-25.547,25.547v4.008c0,14.086,11.46,25.547,25.547,25.547
			c14.087,0,25.547-11.46,25.547-25.547v-4.008C280.044,302.049,268.583,290.588,254.496,290.588z M265.016,320.143
			c0,5.801-4.719,10.52-10.52,10.52s-10.52-4.719-10.52-10.52v-4.008c0-5.801,4.719-10.52,10.52-10.52s10.52,4.719,10.52,10.52
			V320.143z"/>
	</g>
</g>
<g>
	<g>
		<path d="M344.227,278.937v-6.959h10.578c17.61,0,31.937-14.327,31.937-31.936c0-9.631-4.242-18.531-11.521-24.561v-28.372
			c0-1.293-0.087-2.567-0.237-3.82v-47.27c0-17.206-13.693-31.275-30.755-31.88v-2.929c0-23.17-18.849-42.099-42.019-42.196
			l-22.34-0.093c-1.093-7.777-7.772-13.788-15.846-13.788h-21.057c-8.064,0-14.737,5.995-15.842,13.76h-9.345
			c-15.021,0-28.845,5.181-38.924,14.589c-8.606,8.032-14.005,18.722-15.598,30.645c-17.29,0.349-31.249,14.522-31.249,31.893
			v79.264c-7.43,6.025-11.759,14.997-11.759,24.758c0,17.61,14.327,31.936,31.936,31.936h10.578v6.959
			c0,34.246,19.073,64.118,47.153,79.56v20.188h-29.884c-0.506,0-1.011,0.051-1.506,0.152c-24.77,5.068-42.748,27.123-42.748,52.44
			v63.678c0,9.397,7.645,17.043,17.043,17.043h201.352c9.397,0,17.043-7.645,17.043-17.043v-63.678
			c0-29.516-24.013-53.529-53.529-53.529h-20.609v-19.253C325.155,343.055,344.227,313.183,344.227,278.937z M370.41,233.512
			c0.848,2.032,1.304,4.241,1.304,6.529c0,9.323-7.585,16.908-16.909,16.908h-10.578v-8.46
			C355.266,248.223,364.921,242.297,370.41,233.512z M280.044,73.948l22.102,0.093c14.918,0.063,27.054,12.251,27.054,27.169v10.423
			c0,4.15,3.363,7.514,7.514,7.514h6.369c9.303,0,16.872,7.569,16.872,16.872v23.952c-4.814-2.939-10.466-4.635-16.508-4.635
			h-63.404V73.948z M147.033,136.02L147.033,136.02c0-9.318,7.554-16.872,16.872-16.872h6.369c4.181,0,7.505-3.421,7.514-7.602
			c0.045-21.808,16.849-37.626,39.989-37.626h9.167v15.104c0,4.15,3.364,7.514,7.514,7.514s7.514-3.364,7.514-7.514V61.153
			c0-0.548,0.445-0.993,0.993-0.993h21.057c0.548,0,0.993,0.445,0.993,0.993v94.184h-23.043v-17.421c0-4.15-3.364-7.514-7.514-7.514
			s-7.514,3.364-7.514,7.514v17.421h-61.401c-6.903,0-13.294,2.22-18.51,5.973V136.02z M162.761,256.95h-10.578
			c-9.323,0-16.908-7.585-16.908-16.908c0-3.027,0.789-5.909,2.231-8.422c4.933,9.255,14.298,15.804,25.255,16.761V256.95z
			 M148.8,216.737v-29.628c0-9.233,7.512-16.744,16.744-16.744h177.904c8.312,0,15.211,6.095,16.508,14.048v33.919
			c0,0.273,0.016,0.543,0.045,0.809c-1.172,8.095-8.137,14.342-16.552,14.342H165.544C156.311,233.482,148.8,225.97,148.8,216.737z
			 M317.685,392.778c21.228,0,38.501,17.271,38.501,38.501v63.678c0,1.111-0.904,2.015-2.015,2.015h-27.514v-52.598
			c0-4.15-3.363-7.514-7.514-7.514c-4.151,0-7.514,3.364-7.514,7.514v52.598H197.363v-52.598c0-4.15-3.364-7.514-7.514-7.514
			c-4.15,0-7.514,3.364-7.514,7.514v52.598h-29.517c-1.111,0-2.015-0.904-2.015-2.015v-63.678c0-17.968,12.582-33.65,30.022-37.566
			h31.469c4.678,11.206,15.746,19.102,28.628,19.102h25.146c13.237,0,24.556-8.339,28.997-20.037H317.685z M224.941,381.807v-16.744
			c8.983,2.986,18.582,4.608,28.553,4.608c9.971,0,19.57-1.622,28.553-4.608v16.744c0,8.811-7.168,15.981-15.98,15.981h-25.146
			C232.11,397.788,224.941,390.619,224.941,381.807z M253.494,354.642c-41.745,0-75.706-33.961-75.706-75.705V248.51h151.411v30.428
			C329.199,320.681,295.238,354.642,253.494,354.642z"/>
	</g>
</g>
<g>
	<g>
		<path d="M329.135,181.385H180.374c-11.393,0-21.11,8.842-21.54,20.228c-0.453,11.969,9.153,21.851,21.024,21.851h75.33
			c4.236,0,7.623-3.574,7.335-7.799c-0.007-0.11-0.015-0.219-0.021-0.33c-0.239-3.877-3.449-6.899-7.334-6.899h-75.102
			c-3.055,0-5.781-2.19-6.169-5.221c-0.47-3.666,2.385-6.802,5.96-6.802h149.068c3.055,0,5.781,2.19,6.169,5.221
			c0.47,3.666-2.385,6.802-5.96,6.802h-27.356c-3.998,0-7.237,3.197-7.347,7.193c-0.002,0.064-0.004,0.127-0.006,0.191
			c-0.13,4.172,3.169,7.643,7.344,7.643h26.848c11.393,0,21.11-8.842,21.54-20.228C350.611,191.267,341.005,181.385,329.135,181.385
			z"/>
	</g>
</g>
<g>
	<g>
		<path d="M509.465,52.395L494.688,26.8c-1.342-2.324-3.822-3.757-6.507-3.757h-27.442L449.604,3.757
			C448.261,1.433,445.782,0,443.097,0h-29.555c-2.685,0-5.165,1.433-6.507,3.757l-14.777,25.596c-1.343,2.324-1.343,5.19,0,7.514
			l12.002,20.789l-12.002,20.789c-1.343,2.324-1.343,5.19,0,7.514l14.777,25.596c1.342,2.324,3.822,3.757,6.507,3.757h29.555
			c2.685,0,5.165-1.433,6.507-3.757l12.87-22.291h25.707c2.685,0,5.165-1.433,6.507-3.757l14.777-25.596
			C510.808,57.585,510.808,54.72,509.465,52.395z M417.88,15.028h20.879l10.078,17.455l-9.588,16.608h-22.581l-9.227-15.982
			L417.88,15.028z M438.759,100.282H417.88l-10.439-18.082l9.227-15.982h23.303l9.227,15.982L438.759,100.282z M483.843,74.234
			h-20.879l-10.078-17.455l10.8-18.708h20.156l10.439,18.082L483.843,74.234z"/>
	</g>
</g>
<g>
	<g>
		<path d="M158.621,76.387L133.574,51.34c-1.409-1.41-3.32-2.201-5.313-2.201H86.183c-0.883,0-1.726,0.16-2.513,0.44
			C79.517,31.007,62.911,17.08,43.103,17.08c-22.926,0-41.577,18.652-41.577,41.577c0,22.926,18.652,41.577,41.577,41.577
			c21.139,0,38.631-15.862,41.232-36.305c0.592,0.15,1.209,0.238,1.848,0.238h38.966l22.845,22.846
			c1.467,1.467,3.39,2.201,5.313,2.201c1.923,0,3.846-0.733,5.313-2.201C161.555,84.078,161.555,79.32,158.621,76.387z
			 M43.103,85.206c-14.639,0-26.549-11.91-26.549-26.549s11.91-26.549,26.549-26.549s26.549,11.91,26.549,26.549
			S57.742,85.206,43.103,85.206z"/>
	</g>
</g>
<g>
	<g>
		<path d="M115.237,290.588H16.053c-4.15,0-7.514,3.364-7.514,7.514s3.364,7.514,7.514,7.514h99.184c4.15,0,7.514-3.364,7.514-7.514
			S119.387,290.588,115.237,290.588z"/>
	</g>
</g>
<g>
	<g>
		<path d="M71.155,323.65H16.053c-4.15,0-7.514,3.364-7.514,7.514s3.364,7.514,7.514,7.514h55.102c4.15,0,7.514-3.364,7.514-7.514
			S75.305,323.65,71.155,323.65z"/>
	</g>
</g>
<g>
	<g>
		<path d="M115.237,323.65H98.206c-4.15,0-7.514,3.364-7.514,7.514s3.364,7.514,7.514,7.514h17.032c4.15,0,7.514-3.364,7.514-7.514
			S119.387,323.65,115.237,323.65z"/>
	</g>
</g>
<g>
	<g>
		<path d="M115.237,356.711H66.146c-4.15,0-7.514,3.364-7.514,7.514c0,4.15,3.364,7.514,7.514,7.514h49.091
			c4.15,0,7.514-3.364,7.514-7.514C122.751,360.076,119.387,356.711,115.237,356.711z"/>
	</g>
</g>
<g>
	<g>
		<path d="M34.086,356.711H16.052c-4.15,0-7.514,3.364-7.514,7.514c0,4.15,3.364,7.514,7.514,7.514h18.035
			c4.15,0,7.514-3.364,7.514-7.514C41.6,360.076,38.236,356.711,34.086,356.711z"/>
	</g>
</g>
<g>
	<g>
		<path d="M67.148,389.773H16.053c-4.15,0-7.514,3.364-7.514,7.514s3.364,7.514,7.514,7.514h51.095c4.15,0,7.514-3.364,7.514-7.514
			S71.298,389.773,67.148,389.773z"/>
	</g>
</g>
<g>
	<g>
		<path d="M113.233,389.773H95.199c-4.15,0-7.514,3.364-7.514,7.514s3.364,7.514,7.514,7.514h18.034c4.15,0,7.514-3.364,7.514-7.514
			S117.383,389.773,113.233,389.773z"/>
	</g>
</g>
<g>
	<g>
		<path d="M475.945,298.603h-64.193c-11.857,0-21.503,9.646-21.503,21.503v57.179c0,11.857,9.646,21.503,21.503,21.503h64.193
			c11.857,0,21.503-9.646,21.503-21.503v-57.179C497.448,308.249,487.802,298.603,475.945,298.603z M475.945,383.761h-64.193
			c-3.57,0-6.475-2.904-6.475-6.475v-33.871h77.143v33.871h0C482.42,380.856,479.516,383.761,475.945,383.761z M482.42,328.387
			h-77.143v-8.28c0-3.571,2.904-6.475,6.475-6.475h64.193c3.57,0,6.475,2.904,6.475,6.475V328.387z"/>
	</g>
</g>
<g>
</g>
<g>
</g>
<g>
</g>
<g>
</g>
<g>
</g>
<g>
</g>
<g>
</g>
<g>
</g>
<g>
</g>
<g>
</g>
<g>
</g>
<g>
</g>
<g>
</g>
<g>
</g>
<g>
</g>
</svg>
